<?xml version="1.0" encoding="UTF-8" standalone="no"?>
<svg
   xmlns:dc="http://purl.org/dc/elements/1.1/"
   xmlns:cc="http://creativecommons.org/ns#"
   xmlns:rdf="http://www.w3.org/1999/02/22-rdf-syntax-ns#"
   xmlns:svg="http://www.w3.org/2000/svg"
   xmlns="http://www.w3.org/2000/svg"
   id="svg4682"
   version="1.1"
   viewBox="0 0 48 48"
   height="48"
   width="48">
  <defs
     id="defs4676" />
  <metadata
     id="metadata4679">
    <rdf:RDF>
      <cc:Work
         rdf:about="">
        <dc:format>image/svg+xml</dc:format>
        <dc:type
           rdf:resource="http://purl.org/dc/dcmitype/StillImage" />
        <dc:title></dc:title>
      </cc:Work>
    </rdf:RDF>
  </metadata>
  <g
     transform="translate(0,-284.29999)"
     id="layer1">
    <path
       id="rect5269"
       transform="translate(0,284.29999)"
       d="m 5.8242188,39.351562 c -1.4487588,0.786837 -2.4394532,2.301404 -2.4394532,4.072266 0,0.09692 0.021561,0.187791 0.027344,0.283203 H 44.703125 c 0.0058,-0.09546 0.0293,-0.18624 0.0293,-0.283203 0,-1.771172 -0.992229,-3.285553 -2.441406,-4.072266 z"
       style="display:inline;fill:#ffffff;fill-opacity:1;fill-rule:nonzero;stroke:none;stroke-width:1.5065608;stroke-linecap:butt;stroke-miterlimit:4;stroke-dasharray:none;stroke-opacity:1" />
    <path
       id="rect5277"
       transform="translate(0,284.29999)"
       d="m 11.708984,33.667969 c -2.2276729,0 -4.0187407,1.763301 -4.083984,3.974609 h 32.849609 c -0.06523,-2.211322 -1.858253,-3.974609 -4.085937,-3.974609 z m -0.916015,1.285156 h 6.49414 a 0.5009765,0.5009765 0 0 1 0,1.001953 h -6.49414 a 0.5009765,0.5009765 0 1 1 0,-1.001953 z"
       style="fill:#ffffff;fill-opacity:1;fill-rule:nonzero;stroke:none;stroke-width:2.34400034;stroke-linecap:butt;stroke-miterlimit:4;stroke-dasharray:none;stroke-opacity:1" />
    <path
       id="path5301"
       transform="translate(0,284.29999)"
       d="M 24.029297,21.117188 A 13.368737,12.907558 0 0 0 10.679688,33.826172 H 37.400391 A 13.368737,12.907558 0 0 0 24.029297,21.117188 Z m -1.787109,1.916015 a 0.50083746,0.50083746 0 0 1 0.113281,0.986328 c -4.108558,1.048 -6.589142,3.421254 -7.652344,7.433594 a 0.50098426,0.50098426 0 1 1 -0.96875,-0.255859 c 1.139838,-4.30155 3.996698,-7.032138 8.373047,-8.148438 a 0.50083746,0.50083746 0 0 1 0.134766,-0.01563 z"
       style="fill:#ffffff;fill-opacity:1;fill-rule:nonzero;stroke:none;stroke-width:1.48768818;stroke-linecap:butt;stroke-miterlimit:4;stroke-dasharray:none;stroke-opacity:1" />
    <path
       id="path5310"
       transform="translate(0,284.29999)"
       d="m 24.033203,16.763672 a 2.6042995,2.2412758 0 0 0 -2.603515,2.242187 h 2.605468 l 2.603516,-0.002 a 2.6042995,2.2412758 0 0 0 -2.605469,-2.240234 z"
       style="fill:#ffffff;fill-opacity:1;fill-rule:nonzero;stroke:none;stroke-width:1.48000002;stroke-linecap:butt;stroke-miterlimit:4;stroke-dasharray:none;stroke-opacity:1" />
    <path
       id="rect5317"
       d="m 21.425781,303.28157 v 0.21879 c 0,0.56538 0.446755,1.02033 1.001953,1.02033 h 3.205078 c 0.555198,0 1.001954,-0.45495 1.001954,-1.02033 v -0.21879 z"
       style="fill:#ffffff;fill-opacity:1;fill-rule:nonzero;stroke:none;stroke-width:1.47698367;stroke-linecap:butt;stroke-miterlimit:4;stroke-dasharray:none;stroke-opacity:1" />
  </g>
  <g
     id="layer4">
    <path
       id="path5457"
       d="M 5.5114208,15.621108 C 4.5766132,15.316895 3.3714139,14.91681 2.5471931,14.66439 L 6.124383,7.46574 v 0 l 2.7328234,1.6403506 z"
       style="opacity:1;fill:#ffffff;fill-opacity:1;fill-rule:nonzero;stroke:none;stroke-opacity:1" />
    <path
       id="path5453"
       d="M 24.396484,7.1367188 C 23.823495,7.102417 23.187107,7.19074 22.724609,7.3515625 l -8.292968,3.3027345 c -0.4047,0.21256 -0.897536,0.316406 -2.046875,0.316406 L 10.085938,9.703125 6.8867188,16.058594 c 2.6761638,0.875714 5.2996772,1.727239 6.5839842,1.951172 2.857333,0.29901 5.73597,-2.352019 9.019531,-3.673828 0.862079,-0.347041 0.763672,-0.350543 2.169922,-0.476563 4.76e-4,5.63e-4 0.0015,0.0014 0.002,0.002 l 4.390625,-0.01172 c 0.852702,0.0012 1.152874,-0.02244 1.402344,-0.24414 0.251826,-0.2238 0.248585,-0.518687 0.208984,-0.691407 -0.07921,-0.34545 -0.657221,-0.617584 -1.443359,-0.646484 l -7.689453,-0.111328 -0.472656,0.01172 c -0.628232,0.04035 -0.827589,0.0213 -1.804688,0.359375 -0.443189,0.207381 -0.771106,0.3913 -1.164062,0.578125 -0.447643,0.147758 -0.578873,0.347671 -1.072266,0.1875 l 0.324219,-0.394531 c 0.160038,-0.177938 0.450736,-0.323722 0.689453,-0.490235 0.230904,-0.182078 0.840357,-0.411106 1.226562,-0.628906 0.772409,-0.435596 1.219913,-0.441594 2.201172,-0.427734 l 0.587844,0.0039 6.927734,0.11914 0.626953,0.0059 c 0.444126,0.03193 1.107532,0.310779 1.65625,0.826172 0.264731,0.248652 0.28504,1.34393 -0.08984,1.785156 -0.172056,0.169867 -0.304657,0.39878 -0.753907,0.4375 l -1.339843,0.07617 -3.511719,0.05469 c 1.346572,1.023165 3.699082,2.341872 5.53125,2.5 0.904025,0.0651 1.279377,-0.728422 1.707031,-0.732422 0.844319,-0.0082 1.066224,0.78126 2.316407,0.75586 0.958266,-0.01098 1.413826,-0.07205 2.044921,-1.105469 0.712371,-0.16675 1.750728,0.510194 2.914063,0.433594 0.949257,-0.08708 1.514268,-0.870711 1.041016,-1.144531 C 36.719609,12.655417 28.19015,8.4311506 24.939453,7.2128906 24.771499,7.1720806 24.587481,7.1481527 24.396484,7.1367188 Z"
       style="opacity:1;fill:#ffffff;fill-opacity:1;stroke:none;stroke-opacity:1" />
  </g>
</svg>
