<?xml version="1.0" encoding="UTF-8" standalone="no"?>
<svg
   xmlns:dc="http://purl.org/dc/elements/1.1/"
   xmlns:cc="http://creativecommons.org/ns#"
   xmlns:rdf="http://www.w3.org/1999/02/22-rdf-syntax-ns#"
   xmlns:svg="http://www.w3.org/2000/svg"
   xmlns="http://www.w3.org/2000/svg"
   id="svg8930"
   version="1.1"
   viewBox="0 0 12.7 12.7"
   height="48"
   width="48">
  <defs
     id="defs8924" />
  <metadata
     id="metadata8927">
    <rdf:RDF>
      <cc:Work
         rdf:about="">
        <dc:format>image/svg+xml</dc:format>
        <dc:type
           rdf:resource="http://purl.org/dc/dcmitype/StillImage" />
        <dc:title></dc:title>
      </cc:Work>
    </rdf:RDF>
  </metadata>
  <g style="stroke: #FFFFFF"
     transform="translate(0,-284.29998)"
     id="layer1">
    <g
       id="g9584">
      <path
         style="opacity:1;fill:none;fill-opacity:1;stroke-width:0.34448749;stroke-linecap:round;stroke-linejoin:miter;stroke-miterlimit:4;stroke-dasharray:none;stroke-opacity:1"
         id="path9555"
         d="m 6.4896496,288.70542 a 2.5888779,2.6075799 0 0 1 1.2902352,-2.26358 2.5888779,2.6075799 0 0 1 2.5913802,-0.003 2.5888779,2.6075799 0 0 1 1.296129,2.26016" />
      <path
         id="path8948"
         d="M 6.0605453,289.43291 H 12.068889"
         style="fill:none;stroke-width:0.34448749;stroke-linecap:round;stroke-linejoin:miter;stroke-miterlimit:4;stroke-dasharray:none;stroke-opacity:1" />
      <path
         style="fill:none;stroke-width:0.34448749;stroke-linecap:round;stroke-linejoin:miter;stroke-miterlimit:4;stroke-dasharray:none;stroke-opacity:1"
         d="m 9.0619792,286.60371 c -0.041341,1.55941 -1.1244799,2.00609 -2.572341,2.10116"
         id="path9567" />
      <circle
         style="opacity:1;fill:none;fill-opacity:1;stroke-width:0.34448749;stroke-linecap:round;stroke-linejoin:miter;stroke-miterlimit:4;stroke-dasharray:none;stroke-opacity:1"
         id="path9579"
         cx="9.0606461"
         cy="285.5744"
         r="0.28309065" />
    </g>
    <g
       id="g9608">
      <path
         style="fill:none;stroke-width:0.34448749;stroke-linecap:round;stroke-linejoin:miter;stroke-miterlimit:4;stroke-dasharray:none;stroke-opacity:1"
         d="M 0.63148599,290.17042 H 1.6185058 c 0,0 0.4383757,0 0.6605844,0.37479 0.1943033,0.37001 0.534547,1.33403 0.534547,1.33403 0.1123627,0.24767 0.3479255,0.21895 0.4635908,0.004 l 0.4163115,-1.18364 c 0.2974517,-0.73468 1.3409507,-0.73467 1.7890354,3.8e-4 l 0.6162231,1.15626 c 0.1269494,0.21172 0.3513537,0.22036 0.511202,-2.6e-4 l 1.1450572,-1.57852 c 0.089654,-0.11142 0.095879,-0.11333 0.3116337,-0.10704 h 1.1864909 c 0.1974517,0 0.2737792,0.0702 0.2017459,0.22365 l -2.4607661,3.03091 c -0.329135,0.38309 -0.8368456,0.47919 -1.226787,0 l -0.7533473,-1.09644 c -0.1016656,-0.15559 -0.078928,-0.14974 -0.078928,0.0176 v 3.66207"
         id="path9604" />
      <circle
         style="opacity:1;fill:none;fill-opacity:1;stroke-width:0.34448749;stroke-linecap:round;stroke-linejoin:miter;stroke-miterlimit:4;stroke-dasharray:none;stroke-opacity:1"
         id="path9590"
         cx="3.0365069"
         cy="287.70856"
         r="1.6929199" />
    </g>
  </g>
</svg>
